<svg width="118" height="24" viewBox="0 0 118 24" fill="none" xmlns="http://www.w3.org/2000/svg">
<g clip-path="url(#clip0)">
<path d="M118 3.84576V0.0202637H104.089V23.8592H117.919H118V23.7785V20.0404V19.9598H117.919H107.935V12.2216H114.18V8.38938H107.935V3.84576H118Z" fill="#36D1DC"/>
<path d="M100.714 6.89273C100.714 0.0202632 92.798 0.0202637 92.798 0.0202637H82.4099L88.675 9.85918H85.0035V23.8592H88.8772V13.7652H91.1406L97.4531 23.8726H102.101L95.5062 13.3625C97.8033 12.7182 100.714 11.0672 100.714 6.89273ZM89.6249 3.95986H92.8048C92.8048 3.95986 96.7592 3.95986 96.7592 6.89273C96.7592 9.21488 94.361 9.72494 93.3099 9.82563L89.6249 3.95986Z" fill="#36D1DC"/>
<path d="M77.0141 0.00683594H76.9331V0.0873728V23.8592H80.7797V0.0873728V0.00683594H80.699H77.0141Z" fill="#36D1DC"/>
<path d="M63.5404 14.4967L57.0867 0.00683594H53.0245L57.7469 10.6041L55.8337 14.584L49.3396 0.00683594H45.3176L55.901 24.0001L59.7477 15.0873L63.6079 24.0001L73.9958 0.00683594H70.0009L63.5404 14.4967Z" fill="#36D1DC"/>
<path d="M33.3699 0.00512695C26.7261 0.00512695 21.3401 5.37085 21.3401 11.9896C21.3401 18.6084 26.7261 23.9741 33.3699 23.9741C35.421 23.9741 37.3495 23.4601 39.0396 22.5604L39.5232 23.3316H43.8643L41.9937 20.3435C44.103 18.1843 45.3996 15.2348 45.3996 11.9896C45.3996 5.37085 40.0135 0.00512695 33.3699 0.00512695ZM33.3699 20.2985C28.7642 20.2985 25.0296 16.5778 25.0296 11.9896C25.0296 7.40148 28.7642 3.68081 33.3699 3.68081C37.9753 3.68081 41.7099 7.40148 41.7099 11.9896C41.7099 13.911 41.0521 15.6846 39.949 17.0919L35.4725 9.94617H31.1317L37.0723 19.431C35.9628 19.99 34.7051 20.2985 33.3699 20.2985Z" fill="#36D1DC"/>
<path d="M0 23.8724H4.11612L5.88113 19.8792H14.201L12.537 16.1208H7.53836H7.45078L7.48446 16.0402L10.5766 9.12079L10.6238 9.02013L10.6642 9.12079L17.1988 23.8724H21.3284L10.644 0L0 23.8724Z" fill="#36D1DC"/>
</g>
<defs>
<clipPath id="clip0">
<rect width="118" height="24" fill="white"/>
</clipPath>
</defs>
</svg>
